<svg id="Layer_1" data-name="Layer 1" xmlns="http://www.w3.org/2000/svg" viewBox="0 0 268.49 261.9"><defs><style>.cls-1{fill:#dff707;}</style></defs><path class="cls-1" d="M54.14,66.78l5-.42q.93,18.87,2.86,39.11h.59q1.86-4.74,4.8-13.67t5.22-16.47h4.55q2.27,7.53,5.22,16.47t4.8,13.67h.59q1.94-22,2.86-39.11l5,.42Q94,91.92,91.27,110.55H84.79q-2.37-6.36-5.1-14.44T75.1,81.6h-.33q-2,6.77-4.8,15t-5,14H58.6Q55.66,90.15,54.14,66.78Z"/><path class="cls-1" d="M65.25,56.12l8.68-1H93v4.4H65.25Z"/><path class="cls-1" d="M110.72,108.77a9.77,9.77,0,0,1-2.44-6.94V67h5.13v36.4a12.29,12.29,0,0,0,.34,3,17.2,17.2,0,0,0,3.62.34h4.29v3.56a10.65,10.65,0,0,1-4.8,1A8,8,0,0,1,110.72,108.77Z"/><path class="cls-1" d="M136.14,99a37.78,37.78,0,0,1-4.08-7.66,22.41,22.41,0,0,1-1.39-8q0-8.3,5.05-12.7t15.07-4.4a27.9,27.9,0,0,1,7.07.85,16.76,16.76,0,0,1,5.48,2.37l3.79-3,7-1.53,1,4.66L165.86,72a8.47,8.47,0,0,1,1.6,5v33.61h-5.13V73.05A25.37,25.37,0,0,0,157,71.61a36.7,36.7,0,0,0-6.52-.6q-7.59,0-11.12,2.88t-3.53,9.65a21.3,21.3,0,0,0,.63,5.38,28.09,28.09,0,0,0,1.89,5h.59a30.31,30.31,0,0,1,5.1-4.53A22,22,0,0,1,150,86.34l4.46,1.1.09,1.35a22.27,22.27,0,0,1-.42,6h-4l-.59-3.64a15.14,15.14,0,0,0-3.75,1.61,33.73,33.73,0,0,0-3.91,2.62l-4.63,15.16h-5.39Z"/><path class="cls-1" d="M188,108.26q-4.55-3.14-4.54-9.4V67h5.22V98c0,3.1,1,5.3,3,6.6s5,1.95,9.13,1.95a38.26,38.26,0,0,0,6.27-.51,23.35,23.35,0,0,0,4.93-1.27V91.08c-2.25,0-3.9-.06-5-.17a28.58,28.58,0,0,1-8.67-1.7v-8h4.71v5.08a41.92,41.92,0,0,0,7.16.51H212V67h5.22V85.83a21.41,21.41,0,0,0,5.47-2.46l2.36,4a31.59,31.59,0,0,1-7.83,3.05v11.68q0,4.58-4.59,6.94t-11.83,2.37Q192.55,111.39,188,108.26Z"/><path class="cls-1" d="M57.34,173.64A36.56,36.56,0,0,1,53.26,166a22.37,22.37,0,0,1-1.39-8q0-8.29,5.05-12.7T72,140.88a28.42,28.42,0,0,1,7.07.85,16.7,16.7,0,0,1,5.47,2.37l3.79-3,7-1.52,1,4.65-9.26,2.46a8.49,8.49,0,0,1,1.6,5v33.61H83.52v-37.5a26.52,26.52,0,0,0-5.34-1.44,37.65,37.65,0,0,0-6.53-.59q-7.58,0-11.11,2.88T57,158.24a20.81,20.81,0,0,0,.64,5.37,28.09,28.09,0,0,0,1.89,5h.59a30.63,30.63,0,0,1,5.09-4.53A22.82,22.82,0,0,1,71.15,161l4.46,1.1.08,1.35a21.88,21.88,0,0,1-.42,6h-4l-.59-3.64A15.2,15.2,0,0,0,67,167.46a33,33,0,0,0-3.91,2.63l-4.64,15.15H53.05Z"/><path class="cls-1" d="M61,130.81l8.67-1h5.64a4.22,4.22,0,0,1-.33-1.52,6.2,6.2,0,0,1,1.93-4.61,7.61,7.61,0,0,1,5.56-1.91,7.52,7.52,0,0,1,5.22,1.69,5.61,5.61,0,0,1,1.85,4.32,6.34,6.34,0,0,1-1.77,4.61c-1.18,1.22-3,1.82-5.39,1.82H61Zm24.33.17a6.74,6.74,0,0,0,.68-3q0-3.47-3.54-3.47a11.23,11.23,0,0,0-3.54.59,11.71,11.71,0,0,0-.5,3,3.54,3.54,0,0,0,.8,2.54,3.8,3.8,0,0,0,2.82.85A10.2,10.2,0,0,0,85.29,131Z"/><path class="cls-1" d="M108.61,158.91l-5.81-7.78v-3.56a35,35,0,0,1,9.1-4.95,30.89,30.89,0,0,1,10.6-1.74,20.79,20.79,0,0,1,8.38,1.48,11.45,11.45,0,0,1,4.93,3.81,8.55,8.55,0,0,1,1.6,4.87v34.2h-5.22V147.91a22.5,22.5,0,0,0-10.28-2.29q-9.16,0-14.48,3.9v.42l5.22,6.6a4.39,4.39,0,0,1,.93,2.8,14.41,14.41,0,0,1-.17,1.6l-3.79,24.3h-5.05Z"/><path class="cls-1" d="M155.51,183q-4.55-3.12-4.55-9.39V141.73h5.22v31q0,4.66,3,6.6c2,1.3,5,1.95,9.13,1.95a38.29,38.29,0,0,0,6.28-.51,22.65,22.65,0,0,0,4.92-1.27V165.77c-2.24,0-3.9-.06-5-.17a28.59,28.59,0,0,1-8.67-1.69v-8h4.72v5.07a41.71,41.71,0,0,0,7.15.51h1.77V141.73h5.22v18.79a21.55,21.55,0,0,0,5.47-2.45l2.36,4a31.59,31.59,0,0,1-7.83,3.05v11.68q0,4.57-4.59,6.95t-11.83,2.37Q160.05,186.09,155.51,183Z"/><path class="cls-1" d="M215.7,147.23a22,22,0,0,0-7.83-1.27,39.39,39.39,0,0,0-5.13.3,30,30,0,0,0-4.8,1.06l-1-4.15a36.07,36.07,0,0,1,11.53-1.86q6,0,9.22,2.32a7.62,7.62,0,0,1,3.24,6.56v35.05H215.7Z"/><rect class="cls-1" x="58.24" y="207.92" width="39.62" height="5.98"/></svg>